{
  "asset": {
    "generator": "glTF-Transform v4.2.1",
    "version": "2.0"
  },
  "accessors": [
    {
      "type": "VEC3",
      "componentType": 5126,
      "count": 384492,
      "max": [
        276.22589111328125,
        122.72579956054688,
        352.6388854980469
      ],
      "min": [
        -285.9220886230469,
        -122.72579956054688,
        0.07909999787807465
      ],
      "bufferView": 0,
      "byteOffset": 0
    },
    {
      "type": "VEC3",
      "componentType": 5126,
      "count": 384492,
      "bufferView": 0,
      "byteOffset": 12
    },
    {
      "type": "VEC2",
      "componentType": 5126,
      "count": 384492,
      "bufferView": 0,
      "byteOffset": 24
    }
  ],
  "bufferViews": [
    {
      "buffer": 0,
      "byteOffset": 0,
      "byteLength": 12303744,
      "byteStride": 32,
      "target": 34962
    }
  ],
  "buffers": [
    {
      "uri": "buffer.bin",
      "byteLength": 12303744
    }
  ],
  "materials": [
    {
      "pbrMetallicRoughness": {
        "metallicFactor": 0
      }
    }
  ],
  "meshes": [
    {
      "primitives": [
        {
          "attributes": {
            "POSITION": 0,
            "NORMAL": 1,
            "TEXCOORD_0": 2
          },
          "mode": 4,
          "material": 0
        }
      ]
    }
  ],
  "nodes": [
    {
      "name": "empty_2",
      "children": [
        1
      ]
    },
    {
      "name": "g 19880_Fireboat",
      "mesh": 0
    }
  ],
  "scenes": [
    {
      "name": "empty_1",
      "nodes": [
        0
      ]
    }
  ],
  "scene": 0
}